<svg t="1752823127636" class="icon" viewBox="0 0 1024 1024" version="1.1" xmlns="http://www.w3.org/2000/svg" p-id="6467" width="32" height="32"><path d="M807.86 256.55H542v-38.56c0-66.17-53.83-120-120-120H131.17c-16.54 0-29.97 13.39-30 29.94l-0.41 203.56c0 1.5 0.11 2.98 0.32 4.43l-0.9 467.44c0 66.17 53.83 120 120 120h587.69c66.17 0 120-53.83 120-120V376.55c-0.01-66.16-53.84-120-120.01-120zM422 157.99c33.08 0 60 26.92 60 60v38.56H160.91l0.2-98.56H422z m445.86 645.37c0 33.08-26.92 60-60 60H220.17c-33.08 0-60-26.92-60-59.94l0.94-486.87h646.75c33.08 0 60 26.92 60 60v426.81z" p-id="6468"></path></svg>