<svg t="1752823412766" class="icon" viewBox="0 0 1024 1024" version="1.1" xmlns="http://www.w3.org/2000/svg" p-id="9529" width="32" height="32"><path d="M878.187415 259.520942a145.695144 145.695144 0 0 1 145.72333 145.732726V597.926029a145.695144 145.695144 0 0 1-145.72333 145.732726H514.320676c0 19.824386 16.357467 48.969052 36.191249 48.969051h218.613181v85.648864a145.704539 145.704539 0 0 1-145.72333 145.732725H405.277158a145.695144 145.695144 0 0 1-145.72333-145.732725V687.116975a145.375698 145.375698 0 0 1 145.845471-145.244162h267.572837a145.41328 145.41328 0 0 0 145.253558-145.854866V259.520942z m-218.124618 600.838617c-20.416299 0-36.64223 15.295782-36.64223 45.398784s16.366863 36.191249 36.64223 36.191248a36.313389 36.313389 0 0 0 36.200644-36.191248c0-30.065419-16.244722-45.398783-36.200644-45.398784zM368.606742 168.262999" fill="#EFC629" p-id="9530"></path><path d="M210.45324 769.19557h-59.961721A145.704539 145.704539 0 0 1 4.768189 623.462845V430.790483a145.695144 145.695144 0 0 1 145.72333-145.732725h363.857344a61.230106 61.230106 0 0 0-10.663829-31.944508 32.714935 32.714935 0 0 0-25.536816-17.05273H259.553828V150.421052A145.685748 145.685748 0 0 1 405.277158 4.697722h218.134014a145.685748 145.685748 0 0 1 145.723329 145.72333v191.131508a145.394489 145.394489 0 0 1-145.375698 145.244163h-268.052005a145.403885 145.403885 0 0 0-145.253558 145.84547v136.534586zM368.606742 86.757526a39.319931 39.319931 0 0 0-25.52742 6.811697 35.402031 35.402031 0 0 0-10.654433 29.379552 50.970281 50.970281 0 0 0 10.616851 33.926946 32.799494 32.799494 0 0 0 25.565002 11.349696 33.391406 33.391406 0 0 0 25.997192-11.406068 50.904513 50.904513 0 0 0 10.673224-33.98332c-0.009395-31.794181-18.546606-36.078503-36.670416-36.078503z" fill="#1BB0F9" p-id="9531"></path></svg>