<svg t="1752823617114" class="icon" viewBox="0 0 1024 1024" version="1.1" xmlns="http://www.w3.org/2000/svg" p-id="22797" width="32" height="32"><path d="M256 960c-62.08 0-128-44.864-128-128V192c0-83.136 65.92-128 128-128h387.904L896 291.584V832c0 62.08-44.864 128-128 128H256z" fill="#F6F6F6" p-id="22798"></path><path d="M617.024 128H253.696S192 128 192 192v640c0 64 61.76 64 61.76 64h512c64 0 66.24-64 66.24-64V320L617.024 128zM768 832H256V192h320v192h192v448z" fill="#424242" p-id="22799"></path><path d="M448 512V384H384v320h64V576h128v128h64V512H576z" fill="#9B4F96" p-id="22800"></path><path d="M576 384V192H256v640h512V384H576z m64 192v128H576V576H448v128H384V384h64v128h192v64z" fill="#F0EFF1" p-id="22801"></path></svg>